<svg id="svg" version="1.1" xmlns="http://www.w3.org/2000/svg" xmlns:xlink="http://www.w3.org/1999/xlink" width="400" height="399.57492029755576" viewBox="0, 0, 400,399.57492029755576"><g id="svgg"><path id="path0" d="M315.247 100.465 C 282.203 133.523,255.105 160.758,255.029 160.988 C 254.641 162.152,262.368 168.301,267.133 170.619 C 280.109 176.931,293.981 176.873,306.747 170.451 C 311.855 167.882,313.680 166.374,323.497 156.613 C 328.343 151.795,332.530 147.852,332.802 147.852 C 333.626 147.852,335.419 152.720,338.616 163.636 C 344.213 182.748,346.095 207.288,343.503 227.373 C 341.297 244.466,337.653 258.847,331.857 273.327 C 310.074 327.749,266.628 367.175,217.383 377.211 C 174.033 386.046,129.023 374.406,82.026 342.209 C 79.339 340.368,76.986 338.861,76.798 338.861 C 76.164 338.861,74.275 341.301,74.401 341.957 C 74.827 344.165,104.519 365.377,115.560 371.360 C 116.508 371.873,118.002 372.709,118.881 373.218 C 138.481 384.564,164.417 393.403,185.215 395.826 C 186.533 395.979,187.972 396.189,188.412 396.292 C 194.016 397.601,214.196 396.678,226.374 394.557 C 249.801 390.476,275.862 377.765,295.479 360.852 C 327.828 332.963,353.607 295.179,371.416 249.550 C 372.875 245.814,374.232 242.398,374.432 241.958 C 374.928 240.871,376.108 237.494,378.481 230.370 C 388.779 199.448,394.327 171.641,396.698 139.061 C 397.150 132.847,396.998 109.841,396.477 105.694 C 396.229 103.716,395.921 100.929,395.792 99.500 C 394.581 86.050,390.789 69.937,386.152 58.541 C 384.513 54.512,379.479 44.427,378.872 43.956 C 378.730 43.846,378.119 42.992,377.513 42.058 C 376.908 41.124,376.168 40.360,375.870 40.360 C 375.571 40.360,348.291 67.407,315.247 100.465 " stroke="none" fill="#27ace3" fill-rule="evenodd"></path><path id="path1" d="M259.540 0.445 C 248.329 1.156,235.076 2.637,234.386 3.256 C 234.177 3.443,233.458 3.598,232.787 3.599 C 231.082 3.603,216.345 6.116,209.391 7.589 C 206.204 8.264,202.607 9.007,201.399 9.241 C 200.190 9.474,199.021 9.809,198.801 9.985 C 198.581 10.161,196.100 10.876,193.287 11.573 C 186.233 13.322,175.792 16.315,175.263 16.740 C 175.022 16.933,172.667 17.761,170.030 18.579 C 162.127 21.030,158.174 22.403,155.644 23.575 C 154.326 24.186,152.357 24.986,151.269 25.352 C 150.181 25.719,147.573 26.712,145.474 27.559 C 143.376 28.406,141.254 29.218,140.759 29.362 C 140.265 29.506,139.860 29.792,139.860 29.997 C 139.860 30.202,139.655 30.370,139.405 30.370 C 138.895 30.370,129.171 34.623,126.074 36.201 C 124.975 36.760,121.648 38.452,118.681 39.959 C 114.004 42.336,108.188 45.601,99.393 50.788 C 93.963 53.991,85.573 59.575,80.449 63.396 C 78.872 64.572,77.465 65.534,77.322 65.534 C 75.901 65.534,58.815 80.223,49.915 89.096 C 41.036 97.948,26.374 115.240,26.374 116.859 C 26.374 117.003,25.276 118.764,23.935 120.773 C 22.594 122.781,20.507 126.144,19.297 128.246 C 18.087 130.348,16.959 132.248,16.791 132.468 C 16.296 133.112,11.189 144.213,11.189 144.644 C 11.189 144.860,10.586 146.345,9.850 147.943 C 7.902 152.169,5.472 159.782,4.203 165.634 C 3.821 167.393,3.366 169.011,3.192 169.231 C 2.880 169.623,1.733 176.122,0.723 183.217 C -0.077 188.837,0.056 209.504,0.932 215.784 C 1.969 223.209,2.774 227.873,3.173 228.771 C 3.368 229.211,4.187 232.358,4.993 235.764 C 6.503 242.148,8.727 249.540,9.981 252.348 C 10.374 253.227,11.547 256.194,12.588 258.941 C 15.326 266.166,20.476 276.819,25.281 285.196 C 26.895 288.009,28.564 291.004,28.992 291.852 C 29.420 292.700,29.995 293.484,30.270 293.593 C 30.544 293.702,30.769 293.954,30.769 294.152 C 30.769 294.679,34.767 300.800,38.613 306.161 C 40.453 308.725,41.958 310.936,41.958 311.075 C 41.958 311.215,42.553 311.941,43.279 312.689 C 44.006 313.437,44.858 314.552,45.173 315.166 C 46.130 317.034,52.955 325.438,54.919 327.167 C 57.698 329.613,58.507 329.646,62.338 327.478 C 65.226 325.842,98.904 290.702,100.587 287.567 C 106.987 275.647,106.131 267.412,96.780 250.949 C 95.344 248.422,93.417 244.735,92.498 242.757 C 91.579 240.779,89.902 237.237,88.770 234.887 C 87.639 232.536,86.713 230.458,86.713 230.269 C 86.713 230.080,86.084 228.365,85.315 226.457 C 81.229 216.326,78.788 207.670,76.105 193.806 C 73.549 180.597,73.897 156.467,76.742 149.650 C 76.925 149.211,77.368 147.502,77.725 145.854 C 78.944 140.235,81.810 131.432,83.294 128.749 C 83.622 128.157,84.966 125.425,86.282 122.677 C 96.563 101.207,117.859 80.861,140.460 70.916 C 143.317 69.659,145.859 68.468,146.108 68.270 C 146.821 67.704,154.493 65.194,158.242 64.300 C 160.110 63.854,161.998 63.333,162.438 63.143 C 162.877 62.952,164.496 62.586,166.034 62.331 C 167.572 62.075,170.180 61.616,171.828 61.311 C 186.388 58.616,220.907 59.749,227.320 63.133 C 227.678 63.323,230.310 64.051,233.167 64.752 C 238.350 66.024,245.456 68.100,246.203 68.562 C 246.850 68.962,245.774 70.242,239.295 76.785 C 230.612 85.555,226.536 91.423,224.352 98.302 C 223.968 99.510,223.521 100.679,223.359 100.899 C 221.094 103.967,221.100 124.855,223.366 126.673 C 223.503 126.783,223.842 127.682,224.119 128.671 C 225.674 134.227,231.467 143.377,235.436 146.544 C 238.137 148.699,239.519 148.698,243.175 146.537 C 244.735 145.615,359.980 30.038,361.405 27.967 C 364.115 24.026,362.750 21.634,355.202 17.098 C 352.410 15.420,343.622 11.318,341.259 10.590 C 340.709 10.420,340.170 10.171,340.060 10.035 C 339.450 9.282,327.150 5.812,320.080 4.398 C 317.772 3.937,315.524 3.397,315.085 3.198 C 313.578 2.516,301.354 1.030,292.108 0.404 C 285.354 -0.053,267.038 -0.030,259.540 0.445 M373.476 39.303 C 372.169 40.095,300.318 111.576,264.365 147.852 C 252.944 159.376,252.450 160.032,253.395 162.399 C 254.069 164.087,256.080 166.618,257.102 167.066 C 257.564 167.268,259.169 168.400,260.670 169.581 C 263.755 172.009,268.769 174.605,272.328 175.617 C 273.646 175.992,274.915 176.455,275.147 176.646 C 277.521 178.594,294.808 178.578,298.445 176.623 C 298.806 176.429,300.167 175.956,301.471 175.570 C 308.312 173.549,314.830 169.006,324.603 159.449 C 332.521 151.707,332.303 151.802,333.305 155.632 C 333.536 156.518,334.252 158.944,334.895 161.023 C 335.538 163.102,336.064 165.125,336.064 165.519 C 336.064 165.912,336.220 166.234,336.411 166.234 C 336.602 166.234,336.864 166.818,336.992 167.532 C 337.120 168.247,337.673 170.899,338.219 173.427 C 342.321 192.386,342.677 217.731,339.063 233.566 C 337.842 238.912,336.817 242.731,336.495 243.132 C 336.307 243.366,335.572 245.265,334.861 247.353 C 332.089 255.496,327.024 266.159,323.040 272.242 C 321.632 274.392,320.480 276.256,320.480 276.384 C 320.480 277.296,311.887 287.907,307.303 292.654 C 302.300 297.837,290.417 307.692,289.172 307.692 C 289.042 307.692,287.584 308.575,285.932 309.654 C 282.455 311.923,274.470 316.084,273.592 316.084 C 273.263 316.084,272.934 316.231,272.860 316.410 C 272.627 316.981,265.716 319.547,260.340 321.058 C 257.483 321.861,254.785 322.687,254.346 322.892 C 251.330 324.303,235.966 326.073,226.773 326.068 C 218.803 326.064,201.934 324.136,199.201 322.917 C 198.761 322.721,196.424 322.072,194.006 321.474 C 187.750 319.929,180.292 317.716,178.422 316.850 C 177.542 316.444,174.665 315.284,172.028 314.273 C 164.764 311.490,150.845 304.766,147.175 302.267 C 145.133 300.877,139.773 298.363,137.063 297.525 C 135.854 297.152,134.433 296.634,133.906 296.375 C 132.614 295.741,122.606 295.735,121.840 296.368 C 121.531 296.623,120.559 296.955,119.680 297.106 C 116.490 297.653,111.083 300.671,107.293 304.019 C 101.513 309.125,74.854 336.168,74.520 337.263 C 74.353 337.812,73.791 338.770,73.272 339.391 C 71.533 341.471,72.165 343.460,75.586 346.673 C 78.035 348.974,83.282 353.247,83.657 353.247 C 83.796 353.247,85.934 354.743,88.408 356.572 C 95.889 362.100,103.278 367.233,103.758 367.233 C 103.918 367.233,105.409 368.122,107.070 369.209 C 116.719 375.524,142.221 388.412,145.069 388.412 C 145.268 388.412,146.380 388.842,147.541 389.368 C 151.156 391.006,161.272 394.054,167.632 395.420 C 169.391 395.798,171.009 396.240,171.229 396.402 C 171.773 396.805,180.821 398.253,187.413 398.994 C 200.095 400.418,228.295 398.759,231.568 396.397 C 231.788 396.238,232.687 395.982,233.566 395.828 C 238.103 395.032,252.665 390.349,253.642 389.372 C 253.951 389.063,254.460 388.811,254.775 388.811 C 255.090 388.811,257.999 387.573,261.240 386.060 C 285.408 374.776,307.943 355.978,329.765 328.897 C 332.345 325.696,334.727 322.512,335.058 321.822 C 335.389 321.132,336.107 320.143,336.654 319.624 C 337.201 319.106,337.652 318.560,337.655 318.412 C 337.659 318.265,339.625 315.286,342.023 311.793 C 344.421 308.300,346.961 304.376,347.665 303.073 C 348.370 301.770,349.441 299.984,350.045 299.103 C 353.038 294.740,362.077 277.627,366.298 268.332 C 367.296 266.134,368.708 263.077,369.435 261.538 C 370.984 258.265,373.548 251.927,374.932 247.952 C 375.467 246.414,376.371 244.166,376.939 242.957 C 377.789 241.149,380.572 232.948,382.499 226.573 C 382.731 225.804,383.060 224.995,383.229 224.775 C 383.745 224.106,386.918 212.913,388.649 205.659 C 389.182 203.425,389.794 201.239,390.010 200.799 C 390.951 198.886,396.393 170.116,396.401 167.013 C 396.402 166.453,396.553 165.823,396.736 165.614 C 397.186 165.101,397.843 159.895,398.875 148.651 C 400.716 128.616,399.541 92.866,396.820 86.114 C 396.643 85.674,396.097 83.337,395.606 80.919 C 393.859 72.315,391.098 62.631,389.797 60.539 C 389.524 60.100,389.079 59.021,388.809 58.142 C 388.155 56.013,384.023 47.060,383.461 46.553 C 383.217 46.334,382.657 45.435,382.218 44.555 C 379.776 39.672,376.309 37.589,373.476 39.303 M377.513 42.058 C 378.119 42.992,378.730 43.846,378.872 43.956 C 379.479 44.427,384.513 54.512,386.152 58.541 C 390.789 69.937,394.581 86.050,395.792 99.500 C 395.921 100.929,396.229 103.716,396.477 105.694 C 396.998 109.841,397.150 132.847,396.698 139.061 C 394.327 171.641,388.779 199.448,378.481 230.370 C 376.108 237.494,374.928 240.871,374.432 241.958 C 374.232 242.398,372.875 245.814,371.416 249.550 C 353.607 295.179,327.828 332.963,295.479 360.852 C 275.862 377.765,249.801 390.476,226.374 394.557 C 214.196 396.678,194.016 397.601,188.412 396.292 C 187.972 396.189,186.533 395.979,185.215 395.826 C 164.417 393.403,138.481 384.564,118.881 373.218 C 118.002 372.709,116.508 371.873,115.560 371.360 C 104.519 365.377,74.827 344.165,74.401 341.957 C 74.265 341.249,76.186 338.861,76.891 338.861 C 77.131 338.861,84.249 331.929,92.709 323.456 C 112.412 303.724,113.535 302.807,120.344 300.899 C 128.354 298.654,135.783 299.869,143.766 304.729 C 212.443 346.540,286.752 334.971,324.938 276.523 C 333.150 263.953,341.250 243.906,342.856 232.173 C 343.097 230.419,343.371 228.397,343.466 227.679 C 346.120 207.685,344.238 182.833,338.616 163.636 C 335.419 152.720,333.626 147.852,332.802 147.852 C 332.530 147.852,328.343 151.795,323.497 156.613 C 313.680 166.374,311.855 167.882,306.747 170.451 C 293.981 176.873,280.109 176.931,267.133 170.619 C 262.368 168.301,254.641 162.152,255.029 160.988 C 255.297 160.184,375.333 40.360,375.870 40.360 C 376.168 40.360,376.908 41.124,377.513 42.058 M159.840 59.542 C 159.291 59.728,156.953 60.461,154.645 61.172 C 131.348 68.345,106.138 85.787,93.644 103.377 C 61.926 148.032,62.741 200.331,96.046 257.647 C 101.499 267.031,101.825 278.387,96.875 286.555 C 95.266 289.210,61.863 323.125,61.238 322.739 C 60.534 322.303,52.218 309.720,48.257 303.097 C 7.035 234.161,11.632 165.509,60.985 113.004 C 85.521 86.901,119.898 67.780,156.643 59.799 C 159.657 59.144,161.440 59.001,159.840 59.542 " stroke="none" fill="#adcc75" fill-rule="evenodd"></path><path id="path2" d="M156.643 59.799 C 119.898 67.780,85.521 86.901,60.985 113.004 C 11.632 165.509,7.035 234.161,48.257 303.097 C 52.218 309.720,60.534 322.303,61.238 322.739 C 61.863 323.125,95.266 289.210,96.875 286.555 C 101.825 278.387,101.499 267.031,96.046 257.647 C 62.741 200.331,61.926 148.032,93.644 103.377 C 106.138 85.787,131.348 68.345,154.645 61.172 C 160.696 59.308,160.993 59.201,160.040 59.219 C 159.600 59.227,158.072 59.488,156.643 59.799 M339.978 243.744 C 325.199 295.092,279.286 330.103,226.773 330.065 C 202.025 330.047,168.589 319.841,143.766 304.729 C 132.922 298.127,120.586 298.238,111.688 305.019 C 109.919 306.367,77.522 338.488,77.522 338.894 C 77.522 339.213,85.306 344.531,91.908 348.723 C 154.485 388.452,218.062 390.449,269.530 354.302 C 305.262 329.208,332.563 286.270,341.295 241.433 C 342.055 237.527,341.473 238.550,339.978 243.744 " stroke="none" fill="#5c5c5c" fill-rule="evenodd"></path></g></svg>